# Created by Kenney (www.kenney.nl)

mtllib Knight.mtl

g mergedBlocks

v -0.7113248 0.5 1.5
v -1.288675 0.5 1.5
v -0.653606 0.7 1.600084
v -1.346491 0.7 1.600084
v -1.692934 0.7 1.000028
v -1.57735 0.5 1
v -1.288675 0.5 0.5
v -0.7113249 0.5 0.5
v -1.346491 0.7 0.399972
v -0.6536061 0.7 0.399972
v -0.7690761 0.7 0.399972
v -0.7113248 0.4 1.5
v -0.4226497 0.4 0.9999999
v -0.4226497 0.5 0.9999999
v -0.3071635 0.7 1.000028
v -1.288675 0.4 1.5
v -1.57735 0.4 1
v -1.288675 0.4 0.5
v -0.7113249 0.4 0.5
v -0.7113248 0 1.5
v -1.288675 0 1.5
v -0.653606 1 1.600084
v -1.346491 1 1.600084
v -1.692934 1 1.000028
v -0.6536061 1 0.399972
v -0.3071635 1 1.000028
v -1.57735 0 1
v -0.7113249 0 0.5
v -0.4226497 0 0.9999999
v -1.346491 1 0.399972
v -1.288675 0 0.5

vn 8.940697E-08 -0.4475144 0.8942768
vn -0.7744229 -0.4476146 0.4471133
vn -2.980232E-08 -0.4473138 -0.8943771
vn 0.8660254 0 0.5
vn -0.7744664 -0.4475144 -0.4471384
vn 0.7745533 -0.4473138 0.4471884
vn 0.7745966 -0.4472136 -0.4472136
vn 8.940697E-08 0 1
vn -0.8660254 0 0.5000001
vn -0.8660254 0 -0.5
vn -8.940697E-08 0 -1
vn 0.8660254 0 -0.5000001
vn 0 1 0
vn 0 -1 0

vt -0.7113248 0.5
vt -1.288675 0.5
vt -0.653606 0.7
vt -1.346491 0.7
vt 1.000028 0.7
vt 1.600084 0.7
vt 1 0.5
vt 1.5 0.5
vt 1.288675 0.5
vt 0.7113249 0.5
vt 1.346491 0.7
vt 0.6536061 0.7
vt -0.7690761 0.7
vt -1.346491 0.7
vt -0.6536061 0.7
vt -1.5 0.4
vt -1.5 0.5
vt -0.9999999 0.4
vt -0.9999999 0.5
vt 0.5 0.5
vt 0.399972 0.7
vt -1.000028 0.7
vt -1.600084 0.7
vt -0.3999719 0.7
vt -0.5 0.5
vt -0.7113248 0.4
vt -1.288675 0.4
vt 1 0.4
vt 1.5 0.4
vt 0.5 0.4
vt 1.288675 0.4
vt 0.7113249 0.4
vt -0.5 0.4
vt -0.7113248 0
vt -1.288675 0
vt -0.653606 1
vt -1.346491 1
vt 1.000028 1
vt 1.600084 1
vt -0.3999719 1
vt -1.000028 1
vt 1 0
vt 1.5 0
vt -0.5 0
vt -0.9999999 0
vt 0.3071635 1.000028
vt 0.653606 1.600084
vt 0.6536061 0.3999719
vt 1.346491 0.399972
vt 1.346491 1.600084
vt 1.692934 1.000028
vt 0.5 0
vt 0.7690761 0.7
vt 1.346491 1
vt 0.6536061 1
vt -1.600084 1
vt 0.399972 1
vt 1.288675 0
vt 0.7113249 0
vt -1.5 0
vt 0.4226497 -0.9999999
vt 0.7113249 -0.5
vt 0.7113248 -1.5
vt 1.288675 -0.5
vt 1.288675 -1.5
vt 1.57735 -1

usemtl stoneDark(Clone)

f 3/3/1 2/2/1 1/1/1
f 2/2/1 3/3/1 4/4/1
f 6/7/2 4/6/2 5/5/2
f 4/6/2 6/7/2 2/8/2
f 9/11/3 8/10/3 7/9/3
f 8/10/3 9/11/3 10/12/3
f 10/15/3 9/14/3 11/13/3
f 13/18/4 1/17/4 12/16/4
f 1/17/4 13/18/4 14/19/4
f 5/5/5 7/20/5 6/7/5
f 7/20/5 5/5/5 9/21/5
f 15/22/6 1/17/6 14/19/6
f 1/17/6 15/22/6 3/23/6
f 15/22/7 8/25/7 10/24/7
f 8/25/7 15/22/7 14/19/7
f 1/1/8 16/27/8 12/26/8
f 16/27/8 1/1/8 2/2/8
f 16/29/9 6/7/9 17/28/9
f 6/7/9 16/29/9 2/8/9
f 6/7/10 18/30/10 17/28/10
f 18/30/10 6/7/10 7/20/10
f 7/9/11 19/32/11 18/31/11
f 19/32/11 7/9/11 8/10/11
f 14/19/12 19/33/12 8/25/12
f 19/33/12 14/19/12 13/18/12

usemtl stone(Clone)

f 12/26/8 21/35/8 20/34/8
f 21/35/8 12/26/8 16/27/8
f 22/36/8 4/4/8 3/3/8
f 4/4/8 22/36/8 23/37/8
f 4/6/9 24/38/9 5/5/9
f 24/38/9 4/6/9 23/39/9
f 26/41/12 10/24/12 25/40/12
f 10/24/12 26/41/12 15/22/12
f 21/43/9 17/28/9 27/42/9
f 17/28/9 21/43/9 16/29/9
f 13/18/12 28/44/12 19/33/12
f 28/44/12 13/18/12 29/45/12
f 25/48/13 22/47/13 26/46/13
f 22/47/13 25/48/13 30/49/13
f 22/47/13 30/49/13 23/50/13
f 23/50/13 30/49/13 24/51/13
f 17/28/10 31/52/10 27/42/10
f 31/52/10 17/28/10 18/30/10
f 30/54/11 11/53/11 9/11/11
f 11/53/11 30/54/11 10/12/11
f 10/12/11 30/54/11 25/55/11
f 26/41/4 3/23/4 15/22/4
f 3/23/4 26/41/4 22/56/4
f 24/38/10 9/21/10 5/5/10
f 9/21/10 24/38/10 30/57/10
f 18/31/11 28/59/11 31/58/11
f 28/59/11 18/31/11 19/32/11
f 13/18/4 20/60/4 29/45/4
f 20/60/4 13/18/4 12/16/4
f 20/63/14 28/62/14 29/61/14
f 28/62/14 20/63/14 31/64/14
f 31/64/14 20/63/14 21/65/14
f 31/64/14 21/65/14 27/66/14

